<svg xmlns="http://www.w3.org/2000/svg" viewBox="0 0 55 40.31"><defs><style>.cls-1{fill:none;stroke:#ccc;stroke-miterlimit:10;stroke-width:2px;}.cls-2{fill:#ccc;}</style></defs><title>icon-card</title><g id="Layer_2" data-name="Layer 2"><g id="Delivery_and_payment" data-name="Delivery and payment"><path class="cls-1" d="M4.21,39.31H50.79A3.27,3.27,0,0,0,54,36V4.33A3.27,3.27,0,0,0,50.79,1H4.21A3.27,3.27,0,0,0,1,4.33V36A3.27,3.27,0,0,0,4.21,39.31Z"/><path class="cls-1" d="M12.24,18.49H6.62a.82.82,0,0,1-.8-.83v-5a.82.82,0,0,1,.8-.83h5.62a.82.82,0,0,1,.81.83v5A.82.82,0,0,1,12.24,18.49Z"/><path class="cls-2" d="M41.6,18.49A1.61,1.61,0,1,1,40,16.83,1.64,1.64,0,0,1,41.6,18.49Zm-7.39-4.11,1.16,1.16a6.24,6.24,0,0,1,9.25,0l1.16-1.16a7.84,7.84,0,0,0-11.57,0Zm-3.4-3.53L32,12A11,11,0,0,1,48,12l1.15-1.16a12.5,12.5,0,0,0-18.37,0Z"/><line class="cls-1" x1="4.96" y1="25.1" x2="13.8" y2="25.1"/><line class="cls-1" x1="17.01" y1="25.1" x2="25.84" y2="25.1"/><line class="cls-1" x1="4.96" y1="33.43" x2="25.84" y2="33.43"/><line class="cls-1" x1="33.07" y1="33.43" x2="37.09" y2="33.43"/><line class="cls-1" x1="29.06" y1="25.1" x2="37.89" y2="25.1"/><line class="cls-1" x1="41.1" y1="25.1" x2="49.93" y2="25.1"/></g></g></svg>