<svg xmlns="http://www.w3.org/2000/svg" viewBox="0 0 59 54.1"><defs><style>.cls-1{fill:none;stroke:#ccc;stroke-miterlimit:10;stroke-width:2px;}.cls-2{fill:#ccc;}</style></defs><title>icon-money</title><g id="Layer_2" data-name="Layer 2"><g id="Delivery_and_payment" data-name="Delivery and payment"><path class="cls-1" d="M1,1H58V34.53H1Z"/><path class="cls-1" d="M1.14,35.87v3.36c31.77,0,54.49,6.7,54.49,6.7V35.87"/><path class="cls-1" d="M1.14,39.23v3.35c24.46,0,50.29,10.06,50.29,10.06V44.25"/><path class="cls-1" d="M50.46,3.51a5,5,0,0,0,5,5"/><path class="cls-1" d="M55.07,26.57a5,5,0,0,0-5,5"/><path class="cls-1" d="M3.51,8.54a5,5,0,0,0,5-5"/><path class="cls-1" d="M8.54,32a5,5,0,0,0-5-5"/><path class="cls-2" d="M25.53,18.85V17.53h.95V12h3.61a7.07,7.07,0,0,1,1.65.18,3.36,3.36,0,0,1,1.28.59,2.72,2.72,0,0,1,.84,1,3.66,3.66,0,0,1,.3,1.57A3.34,3.34,0,0,1,33.8,17a3,3,0,0,1-.95,1.08,4,4,0,0,1-1.38.61,7.3,7.3,0,0,1-1.64.18H28.38v1.5h3.39v1.32H28.38v2h-1.9v-2h-.95V20.35h.95v-1.5Zm2.85-5.52v4.2h1.27A3,3,0,0,0,31.56,17a1.88,1.88,0,0,0,.66-1.58,2.06,2.06,0,0,0-.57-1.57,2.47,2.47,0,0,0-1.77-.54Z"/></g></g></svg>