<svg xmlns="http://www.w3.org/2000/svg" viewBox="0 0 62.93 61.33"><defs><style>.cls-1{fill:#ccc;}</style></defs><title>icon-shopping</title><g id="Layer_2" data-name="Layer 2"><g id="Delivery_and_payment" data-name="Delivery and payment"><path class="cls-1" d="M62.93,59.57v.19a1.47,1.47,0,0,1-.46,1.1,1.52,1.52,0,0,1-1.11.47H1.57A1.67,1.67,0,0,1,1,61.2a1.21,1.21,0,0,1-.52-.37A1.38,1.38,0,0,1,0,59.67L3.17,15.61a1.56,1.56,0,0,1,1.57-1.48h7.19L25.63.46A1.52,1.52,0,0,1,26.75,0a1.5,1.5,0,0,1,1.12.46L41.55,14.13h5L37.77,5.35l-.46.46a1.58,1.58,0,0,1-1.13.46,1.57,1.57,0,0,1-1.12-2.68L36.66,2a1.51,1.51,0,0,1,1.11-.46,1.47,1.47,0,0,1,1.1.46L51,14.13H58.2a1.54,1.54,0,0,1,1.56,1.48ZM3.26,58.19H59.67L56.75,17.3H6.18ZM26.74,3.78,16.38,14.13H37.12ZM34,42.11a11,11,0,0,0,2.4-1,11.54,11.54,0,0,0,2.2-1.64,14.42,14.42,0,0,0,1.93-2.27,17,17,0,0,0,1.52-2.6,20.45,20.45,0,0,0,1.11-2.92,22.68,22.68,0,0,0,.67-3.16,23.14,23.14,0,0,0,.23-3.34,1.47,1.47,0,0,0-.46-1.1,1.59,1.59,0,0,0-2.24,0,1.47,1.47,0,0,0-.46,1.1A22.09,22.09,0,0,1,40.72,28a19.41,19.41,0,0,1-.57,2.71,20,20,0,0,1-.92,2.47A12.73,12.73,0,0,1,38,35.36a10.19,10.19,0,0,1-3,2.94,6.41,6.41,0,0,1-7,0,10.17,10.17,0,0,1-3-2.94,12.11,12.11,0,0,1-1.28-2.18,17.24,17.24,0,0,1-.92-2.47A16.91,16.91,0,0,1,22.22,28,22.09,22.09,0,0,1,22,25.16a1.57,1.57,0,0,0-1.57-1.56,1.55,1.55,0,0,0-1.14.46,1.47,1.47,0,0,0-.46,1.1,24.66,24.66,0,0,0,.23,3.34,22.69,22.69,0,0,0,.68,3.16,19.28,19.28,0,0,0,1.1,2.92,17,17,0,0,0,1.52,2.6,14.46,14.46,0,0,0,1.94,2.27,11.54,11.54,0,0,0,2.2,1.64,10.89,10.89,0,0,0,2.39,1,9.36,9.36,0,0,0,5.07,0Z"/></g></g></svg>