<?xml version="1.0" encoding="utf-8"?>
<svg xmlns="http://www.w3.org/2000/svg" viewBox="0 0 187.81 46.96"><defs><style>.cls-1{fill:#231f20;}</style></defs><title>logo</title><g id="Layer_2" data-name="Layer 2"><g id="Layer_1-2" data-name="Layer 1"><path class="cls-1" d="M66.12.08A23.3,23.3,0,0,0,42.84,23.52C42.84,36.47,51.11,47,66.12,47A23.31,23.31,0,0,0,89.4,23.52C89.4,10.58,81.15.08,66.12.08Zm0,46.31c-9,0-11.31-10.24-11.31-22.87S56.61.65,66.12.65,77.43,10.89,77.43,23.52,75.12,46.39,66.12,46.39Z"/><path class="cls-1" d="M15.17.92H.16V1.5h4V45.55H0v.57H19.38v-.57H15.17V24.37H19.6c3.76,0,6.54,3,6.54,7.86h.54V16h-.54c-.08,7.66-7.45,7.76-7.45,7.76H15.17V1.49h10c6.06,0,9.38,4.89,9.38,11.3H35V.92H15.17Z"/><path class="cls-1" d="M136.8,36c0-8.1-5-11.32-13.29-11.86V24c8.66-.63,15.24-4.35,15.24-11.82,0-6.92-5.11-11.23-19.1-11.23l.09,0-.22,0H98.88v.57h4V45.55H98.65v.57H118v-.57h-4.21V24.37h7.74c5.15,2.17,4.6,8.63,4.6,14.06,0,5.11,3,7.71,8.25,7.71s3.65,0,7.32,0C139.15,44.55,136.8,43.55,136.8,36Zm-23-34.54h7.8c4.17,1.51,6.24,4.56,6.24,10.29,0,6.14-1,10.17-6.16,12h-7.88Z"/><path class="cls-1" d="M187.78,32.67c-.45-6.68-5.2-10.68-14.68-13.85-7-2.34-11.07-5-11.39-8.76-.41-4.95,1.42-8.05,7-9.49.16,0,.31,0,.47,0,15.55,0,14.54,13.18,14.54,13.18h.57V.25h-.57a2.08,2.08,0,0,1-2.08,2.29c-3.44,0-6.33-2.54-12.45-2.54A14.44,14.44,0,0,0,166,.38C156.71,1.3,152.1,7.13,152.5,13c.53,7.84,5.72,11.45,12.36,14,5.42,2,13.31,4.12,13.75,10.5a8.4,8.4,0,0,1-2.33,6.79,9.92,9.92,0,0,1-6.35,2.14c-15.55,0-15.65-15.3-15.65-15.3h-.57V45.65h.57a2.08,2.08,0,0,1,2.08-2.29c1.78,0,6,3.56,13.56,3.56a16.38,16.38,0,0,0,4.09-.5C183.64,45.11,188.28,40.15,187.78,32.67Z"/></g></g></svg>